<svg width="34" height="34" viewBox="0 0 34 34" fill="none" xmlns="http://www.w3.org/2000/svg">
<path d="M7.19247 13.3975C7.19247 12.2954 7.38514 11.2541 7.76481 10.2823C8.12755 9.33835 8.66648 8.47201 9.35289 7.72944C10.0379 6.99661 10.8218 6.36292 11.6819 5.84669C12.5644 5.31282 13.5197 4.91005 14.5181 4.65102C15.5284 4.38571 16.5688 4.25191 17.6135 4.25294C19.2271 4.25294 20.7287 4.59435 22.1213 5.27435C23.4957 5.94195 24.6656 6.96648 25.5086 8.24085C26.3784 9.5371 26.8105 11.0034 26.8105 12.6382C26.8105 13.6185 26.7141 14.5776 26.5172 15.5154C26.3239 16.4527 26.0165 17.3629 25.6021 18.2255C25.207 19.0606 24.6904 19.8325 24.0692 20.5163C23.4449 21.1891 22.6887 21.7263 21.8479 22.0944C20.935 22.4945 19.9475 22.6959 18.9508 22.6852C18.2581 22.6852 17.5667 22.5223 16.8839 22.195C16.2011 21.8692 15.7109 21.4215 15.4162 20.8478C15.3128 21.2459 15.1711 21.821 14.9827 22.5733C14.8014 23.3241 14.6796 23.8086 14.6257 24.0282C14.5691 24.2464 14.4642 24.6104 14.3112 25.1148C14.2075 25.4878 14.0744 25.8521 13.9131 26.2042L13.4258 27.159C13.2151 27.5688 12.9794 27.9652 12.7203 28.3462C12.4639 28.7174 12.1466 29.1608 11.7683 29.6708L11.5572 29.7459L11.417 29.5929C11.2654 27.9878 11.1875 27.0273 11.1875 26.7099C11.1875 25.7707 11.2994 24.7167 11.5204 23.5465C11.7371 22.3778 12.08 20.9087 12.5404 19.1421C13.0008 17.3769 13.2643 16.3385 13.3351 16.0311C13.0107 15.3695 12.8464 14.5054 12.8464 13.4429C12.8464 12.5943 13.1113 11.7995 13.6426 11.0515C14.1752 10.3064 14.8481 9.93377 15.6641 9.93377C16.2889 9.93377 16.7734 10.1406 17.1205 10.5557C17.469 10.9694 17.639 11.4907 17.639 12.1268C17.639 12.8011 17.4151 13.7772 16.9646 15.0536C16.5141 16.3314 16.2903 17.2849 16.2903 17.9181C16.2903 18.5599 16.5198 19.0968 16.9788 19.5175C17.4318 19.9385 18.0308 20.1666 18.6491 20.1536C19.2101 20.1536 19.73 20.0261 20.2131 19.7697C20.6886 19.5208 21.1002 19.1654 21.4158 18.7313C22.1032 17.7882 22.5932 16.7161 22.8566 15.5792C22.9926 14.9814 23.0974 14.4133 23.1626 13.8792C23.232 13.3423 23.2617 12.8351 23.2617 12.3534C23.2617 10.5869 22.7007 9.20985 21.5858 8.22385C20.4652 7.23785 19.0061 6.74769 17.2111 6.74769C15.1697 6.74769 13.4626 7.40785 12.0956 8.73244C10.7271 10.0528 10.0386 11.7315 10.0386 13.7673C10.0386 14.2164 10.1066 14.6499 10.2355 15.0692C10.3616 15.4871 10.499 15.82 10.6477 16.0665C10.7951 16.3088 10.9339 16.5454 11.06 16.7635C11.1875 16.9817 11.2541 17.1375 11.2541 17.231C11.2541 17.5172 11.179 17.8898 11.0274 18.3502C10.8701 18.8106 10.6846 19.0401 10.4607 19.0401C10.4395 19.0401 10.3516 19.0245 10.1986 18.9919C9.66875 18.8337 9.19022 18.538 8.81172 18.1349C8.41001 17.717 8.09298 17.2254 7.87814 16.687C7.66391 16.1506 7.49705 15.5965 7.37947 15.0309C7.25244 14.4958 7.18967 13.9475 7.19247 13.3975Z" fill="black"/>
</svg>
