<svg width="34" height="34" viewBox="0 0 34 34" fill="none" xmlns="http://www.w3.org/2000/svg">
<path d="M27.7527 9.47766C26.3405 9.16712 25.063 8.4172 24.1035 7.33551C23.144 6.25382 22.5518 4.89598 22.4119 3.45683V2.8335H17.5244V22.1993C17.5254 23.0586 17.256 23.8965 16.7543 24.5941C16.2527 25.2918 15.5443 25.814 14.7294 26.0866C13.9145 26.3593 13.0345 26.3687 12.214 26.1134C11.3935 25.8581 10.6741 25.3512 10.1577 24.6643C9.69509 24.0564 9.41181 23.3311 9.33991 22.5705C9.268 21.8099 9.41033 21.0444 9.75081 20.3605C10.0913 19.6766 10.6163 19.1016 11.2665 18.7005C11.9168 18.2995 12.6662 18.0883 13.4302 18.091C13.8527 18.0886 14.2731 18.1507 14.6769 18.2752V13.3168C14.207 13.2586 13.7335 13.235 13.2602 13.246C11.5167 13.2926 9.82467 13.8466 8.39124 14.8401C6.95781 15.8337 5.84522 17.2237 5.18971 18.8399C4.53419 20.4561 4.36422 22.2284 4.70059 23.9398C5.03696 25.6511 5.86508 27.2273 7.08354 28.4752C8.33231 29.7448 9.93032 30.6145 11.6745 30.9739C13.4187 31.3332 15.2304 31.166 16.8793 30.4933C18.5282 29.8207 19.94 28.6731 20.9352 27.1963C21.9304 25.7195 22.4641 23.9802 22.4685 22.1993V12.2827C24.4398 13.6908 26.8036 14.444 29.226 14.436V9.61933C28.7502 9.62129 28.2754 9.57381 27.8094 9.47766H27.7527Z" fill="black"/>
</svg>
