<svg width="34" height="34" viewBox="0 0 34 34" fill="none" xmlns="http://www.w3.org/2000/svg">
<path d="M30.5901 10.2044C30.4287 9.60574 30.1134 9.05976 29.6754 8.62083C29.2375 8.18189 28.6922 7.86531 28.0939 7.70259C25.8754 7.09342 17 7.08351 17 7.08351C17 7.08351 8.12598 7.07359 5.90606 7.65584C5.30812 7.82605 4.76398 8.14711 4.32586 8.5882C3.88775 9.02929 3.57038 9.57559 3.40423 10.1747C2.81915 12.3932 2.81348 16.9945 2.81348 16.9945C2.81348 16.9945 2.80781 21.6185 3.38865 23.8143C3.71448 25.0284 4.67073 25.9875 5.88623 26.3148C8.1274 26.9239 16.9787 26.9338 16.9787 26.9338C16.9787 26.9338 25.8541 26.9438 28.0726 26.3629C28.6712 26.2005 29.217 25.8846 29.656 25.4466C30.095 25.0086 30.4121 24.4635 30.5759 23.8653C31.1624 21.6483 31.1666 17.0483 31.1666 17.0483C31.1666 17.0483 31.195 12.4229 30.5901 10.2044ZM14.161 21.2573L14.1681 12.7573L21.5446 17.0143L14.161 21.2573Z" fill="black"/>
</svg>
