<svg width="34" height="34" viewBox="0 0 34 34" fill="none" xmlns="http://www.w3.org/2000/svg">
<path d="M16.9989 10.4507C15.2616 10.4507 13.5954 11.1408 12.3669 12.3693C11.1384 13.5978 10.4482 15.264 10.4482 17.0014C10.4482 18.7387 11.1384 20.4049 12.3669 21.6334C13.5954 22.8619 15.2616 23.552 16.9989 23.552C18.7363 23.552 20.4024 22.8619 21.6309 21.6334C22.8594 20.4049 23.5496 18.7387 23.5496 17.0014C23.5496 15.264 22.8594 13.5978 21.6309 12.3693C20.4024 11.1408 18.7363 10.4507 16.9989 10.4507ZM16.9989 21.2556C15.8702 21.2556 14.7878 20.8072 13.9897 20.0091C13.1916 19.2111 12.7432 18.1286 12.7432 16.9999C12.7432 15.8713 13.1916 14.7888 13.9897 13.9907C14.7878 13.1926 15.8702 12.7443 16.9989 12.7443C18.1276 12.7443 19.21 13.1926 20.0081 13.9907C20.8062 14.7888 21.2546 15.8713 21.2546 16.9999C21.2546 18.1286 20.8062 19.2111 20.0081 20.0091C19.21 20.8072 18.1276 21.2556 16.9989 21.2556Z" fill="black"/>
<path d="M23.8084 11.7369C24.6518 11.7369 25.3356 11.0532 25.3356 10.2098C25.3356 9.36635 24.6518 8.68262 23.8084 8.68262C22.965 8.68262 22.2812 9.36635 22.2812 10.2098C22.2812 11.0532 22.965 11.7369 23.8084 11.7369Z" fill="black"/>
<path d="M29.0885 8.65749C28.7606 7.81058 28.2594 7.04147 27.6171 6.39941C26.9748 5.75734 26.2055 5.25646 25.3584 4.92882C24.3672 4.55675 23.3201 4.35556 22.2616 4.33382C20.8973 4.27432 20.4653 4.25732 17.0058 4.25732C13.5463 4.25732 13.1028 4.25732 11.7499 4.33382C10.6922 4.35445 9.64584 4.55568 8.65593 4.92882C7.80867 5.25608 7.03918 5.75682 6.39682 6.39894C5.75446 7.04106 5.25342 7.81036 4.92585 8.65749C4.55369 9.64861 4.35297 10.6958 4.33226 11.7543C4.27135 13.1172 4.25293 13.5492 4.25293 17.0102C4.25293 20.4697 4.25293 20.9102 4.33226 22.266C4.35351 23.3257 4.55326 24.3712 4.92585 25.3642C5.25434 26.2111 5.75587 26.9801 6.39838 27.6221C7.0409 28.2641 7.81027 28.7651 8.65735 29.0929C9.64538 29.4799 10.6922 29.6955 11.7528 29.7304C13.117 29.7899 13.5491 29.8083 17.0086 29.8083C20.4681 29.8083 20.9115 29.8083 22.2644 29.7304C23.3228 29.7089 24.3699 29.5082 25.3613 29.1368C26.2081 28.8084 26.9771 28.3071 27.6194 27.6649C28.2616 27.0226 28.7629 26.2536 29.0913 25.4067C29.4639 24.4151 29.6637 23.3696 29.6849 22.3099C29.7458 20.9471 29.7643 20.515 29.7643 17.0541C29.7643 13.5932 29.7643 13.154 29.6849 11.7982C29.6684 10.7248 29.4667 9.66226 29.0885 8.65749ZM27.363 22.1612C27.3539 22.9776 27.2049 23.7864 26.9224 24.5525C26.7097 25.1034 26.384 25.6037 25.9663 26.0211C25.5486 26.4386 25.0481 26.764 24.4971 26.9764C23.7395 27.2575 22.9393 27.4066 22.1313 27.417C20.7854 27.4793 20.4058 27.4949 16.9548 27.4949C13.5009 27.4949 13.1482 27.4949 11.7768 27.417C10.9692 27.4071 10.1694 27.2581 9.41243 26.9764C8.85949 26.7653 8.35702 26.4405 7.93752 26.0229C7.51803 25.6054 7.19086 25.1044 6.97718 24.5525C6.69873 23.7946 6.54979 22.9953 6.5366 22.1881C6.47568 20.8422 6.46151 20.4626 6.46151 17.0116C6.46151 13.5592 6.46151 13.2064 6.5366 11.8337C6.54575 11.0177 6.69477 10.2093 6.97718 9.44374C7.40926 8.32599 8.29468 7.44624 9.41243 7.01841C10.1698 6.73811 10.9694 6.58911 11.7768 6.57782C13.1241 6.51691 13.5023 6.49991 16.9548 6.49991C20.4072 6.49991 20.7613 6.49991 22.1313 6.57782C22.9393 6.58755 23.7397 6.73659 24.4971 7.01841C25.0481 7.23129 25.5485 7.55703 25.9661 7.9747C26.3838 8.39237 26.7095 8.89276 26.9224 9.44374C27.2009 10.2016 27.3498 11.0009 27.363 11.8082C27.4239 13.1554 27.4395 13.5337 27.4395 16.9861C27.4395 20.4371 27.4395 20.8082 27.3786 22.1626H27.363V22.1612Z" fill="black"/>
</svg>
