<svg width="34" height="34" viewBox="0 0 34 34" fill="none" xmlns="http://www.w3.org/2000/svg">
<path d="M27.8131 11.3289C27.8315 11.5768 27.8315 11.8233 27.8315 12.0698C27.8315 19.6135 22.0898 28.3062 11.5965 28.3062C8.36367 28.3062 5.36034 27.3698 2.83301 25.7434C3.29201 25.7959 3.73401 25.8143 4.21142 25.8143C6.77983 25.8205 9.27551 24.9616 11.2962 23.3762C10.1054 23.3546 8.95099 22.9618 7.99426 22.2524C7.03753 21.543 6.3262 20.5526 5.95959 19.4194C6.31234 19.4719 6.66651 19.5073 7.03767 19.5073C7.54909 19.5073 8.06334 19.4364 8.54076 19.3132C7.24842 19.0523 6.08635 18.3518 5.25213 17.3308C4.41792 16.3099 3.96307 15.0315 3.96492 13.7131V13.6423C4.72567 14.0659 5.60826 14.3308 6.54326 14.3662C5.75997 13.8457 5.11769 13.1394 4.67374 12.3103C4.22978 11.4812 3.99795 10.5552 3.99892 9.61469C3.99892 8.55503 4.28084 7.58319 4.77526 6.73603C6.20912 8.4998 7.99747 9.94274 10.0245 10.9714C12.0515 12 14.272 12.5914 16.5421 12.7073C16.4543 12.2823 16.4004 11.8417 16.4004 11.3997C16.4001 10.6502 16.5474 9.90803 16.834 9.21553C17.1207 8.52304 17.541 7.89383 18.0709 7.36388C18.6009 6.83392 19.2301 6.41361 19.9226 6.12697C20.6151 5.84033 21.3573 5.69299 22.1068 5.69336C23.7501 5.69336 25.2333 6.38186 26.276 7.49536C27.5535 7.24832 28.7786 6.78196 29.897 6.11694C29.4712 7.4356 28.5792 8.55376 27.3881 9.26194C28.5211 9.13271 29.6285 8.83475 30.6733 8.37794C29.8929 9.51567 28.9259 10.5133 27.8131 11.3289Z" fill="black"/>
</svg>
